Format : MPEG-4
Format profile : Base Media / Version 2
Codec ID : mp42
File size : 288 MiB
Duration : 1h 30mn
Overall bit rate : 447 Kbps
Encoded date : UTC 2010-10-04 20:50:02
Tagged date : UTC 2010-10-04 20:50:21
Writing application : mp4creator 1.6.1d

Video
ID : 1
Format : AVC
Format/Info : Advanced Video Codec
Format profile : Baseline@L1.3
Format settings, CABAC : No
Format settings, ReFrames : 1 frame
Codec ID : avc1
Codec ID/Info : Advanced Video Coding
Duration : 1h 30mn
Bit rate mode : Variable
Bit rate : 382 Kbps
Width : 480 pixels
Height : 272 pixels
Display aspect ratio : 16:9
Original display aspect ratio : 16:9
Frame rate mode : Constant
Frame rate : 24.000 fps
Resolution : 24 bits
Colorimetry : 4:2:0
Scan type : Progressive
Bits/(Pixel*Frame) : 0.122
Stream size : 246 MiB (86%)
Encoded date : UTC 2010-10-04 20:50:02
Tagged date : UTC 2010-10-04 20:50:19

Audio
ID : 2
Format : AAC
Format/Info : Advanced Audio Codec
Format version : Version 4
Format profile : LC
Format settings, SBR : Yes
Format settings, PS : No
Codec ID : 40
Duration : 1h 30mn
Bit rate mode : Variable
Bit rate : 62.8 Kbps
Maximum bit rate : 145 Kbps
Channel(s) : 2 channels
Channel positions : L R
Sampling rate : 48.0 KHz
Resolution : 16 bits
Stream size : 40.4 MiB (14%)
Encoded date : UTC 2010-10-04 20:50:20
Tagged date : UTC 2010-10-04 20:50:21

When Max, who is recovering from a traumatic accident, takes a job as a nighttime security guard, he begins to see visions of a young mysterious woman in the store's mirror.
 
http://www.imdb.com/title/tt1576699/

screen shots
 
http://img812.imageshack.us/img812/9339/mirrors2h264vicemp4snap.jpg 
http://img31.imageshack.us/img31/9339/mirrors2h264vicemp4snap.jpg 
http://img21.imageshack.us/img21/9339/mirrors2h264vicemp4snap.jpg 
http://img28.imageshack.us/img28/9339/mirrors2h264vicemp4snap.jpg